<?xml version="1.0" standalone="no"?>
<!DOCTYPE svg PUBLIC "-//W3C//DTD SVG 20010904//EN"
 "http://www.w3.org/TR/2001/REC-SVG-20010904/DTD/svg10.dtd">
<svg version="1.0" xmlns="http://www.w3.org/2000/svg"
 width="1024.000000pt" height="1024.000000pt" viewBox="0 0 1024.000000 1024.000000"
 preserveAspectRatio="xMidYMid meet">
<metadata>
Created by potrace 1.14, written by Peter Selinger 2001-2017
</metadata>
<g transform="translate(0.000000,1024.000000) scale(0.100000,-0.100000)"
fill="#000000" stroke="none">
<path d="M4965 7759 c-214 -29 -419 -113 -591 -243 -79 -59 -219 -205 -273
-285 -158 -232 -231 -512 -209 -799 48 -636 586 -1132 1228 -1132 642 0 1180
496 1228 1132 18 232 -23 445 -123 649 -64 129 -118 203 -234 320 -187 188
-402 302 -656 349 -85 15 -287 21 -370 9z"/>
<path d="M2067 4924 c-101 -15 -268 -69 -359 -115 -226 -114 -437 -326 -550
-554 -80 -160 -118 -312 -125 -505 -6 -163 12 -286 63 -440 203 -606 846 -956
1468 -799 408 103 740 415 871 816 40 121 57 235 57 383 0 271 -78 511 -236
725 -275 372 -732 561 -1189 489z"/>
<path d="M4908 4925 c-716 -135 -1162 -828 -984 -1527 121 -473 527 -840 1013
-913 471 -71 945 139 1210 538 394 591 208 1392 -407 1752 -94 55 -206 100
-329 132 -122 32 -380 41 -503 18z"/>
<path d="M7786 4925 c-510 -83 -913 -470 -1016 -975 -26 -129 -29 -332 -6
-460 44 -242 152 -454 323 -631 246 -256 539 -382 888 -382 280 0 524 80 746
247 325 245 502 620 486 1031 -13 326 -128 587 -361 821 -175 176 -362 279
-606 335 -115 27 -335 33 -454 14z"/>
</g>
</svg>
